<svg width="33" height="49" viewBox="0 0 33 49" fill="none" xmlns="http://www.w3.org/2000/svg">
<g clip-path="url(#clip0_12_150)">
<path d="M16.1724 47.6282C16.1222 47.4915 15.8697 46.5713 15.6113 45.5833C14.794 42.4582 13.3805 39.0979 11.4622 35.7196C10.3609 33.7802 10.1617 33.471 6.94406 28.706C1.74484 21.0066 0.831134 18.8447 1.02327 14.6981C1.19944 10.8981 2.54549 8.0511 5.46739 5.29809C7.89272 3.01305 10.5847 1.69502 13.8593 1.18952C21.9745 -0.0632188 29.8475 5.02649 31.4427 12.5565C31.8146 14.312 31.732 17.3333 31.2673 18.9746C30.7576 20.7752 28.7125 24.418 25.8221 28.6735C20.6052 36.3547 18.6298 40.1911 17.1508 45.515C16.5781 47.5761 16.3413 48.0877 16.1724 47.6282Z" fill="#FB0100" stroke="#FB0100" stroke-width="1.0239"/>
<path d="M22.7636 17.4835C22.7636 20.666 19.9268 23.246 16.4273 23.246C12.9281 23.246 10.0911 20.666 10.0911 17.4835C10.0911 14.3008 12.9278 11.7209 16.4273 11.7209C19.9268 11.7209 22.7636 14.3008 22.7636 17.4835Z" fill="#B60401"/>
</g>
<defs>
<clipPath id="clip0_12_150">
<rect width="33" height="49" fill="white"/>
</clipPath>
</defs>
</svg>
